<svg id="Layer_1" data-name="Layer 1" xmlns="http://www.w3.org/2000/svg" viewBox="0 0 841.89 242.84"><defs><style>.cls-1{fill:#fff;}</style></defs><title>cloudevo</title><path class="cls-1" d="M91.31,93.48c27.54,0,44.85,8.83,47.17,30.79H110c-2.21-5.93-8.71-7.56-18.71-7.56-12.43,0-19.51,2.56-19.51,12.78s7.08,12.78,19.51,12.78c10,0,16.5-1.62,18.71-7.55h28.46c-2.32,22-19.63,30.79-47.17,30.79-29.62,0-47.4-10.22-47.4-36S61.69,93.48,91.31,93.48Z"/><path class="cls-1" d="M175.66,71.4v92.95H147.77V71.4Z"/><path class="cls-1" d="M185,129.49c0-25.79,17.77-36,47.4-36s47.4,10.22,47.4,36-17.77,36-47.4,36S185,155.29,185,129.49Zm66.92,0c0-10.22-7.09-12.78-19.52-12.78s-19.52,2.56-19.52,12.78,7.09,12.78,19.52,12.78S251.87,139.72,251.87,129.49Z"/><path class="cls-1" d="M384.07,94.64v69.71H356.19v-9.3a56.92,56.92,0,0,1-33.69,10.46c-15.69,0-33.46-4.88-33.46-30.09V94.64h27.88V124c0,12,4.3,17.08,16.85,17.08a34,34,0,0,0,22.42-8.83V94.64Z"/><path class="cls-1" d="M488.16,71.4v92.95H460.28v-9.53c-7.32,7.44-18,10.69-28.81,10.69-18,0-38.11-7.9-38.11-36s20.1-36,38.11-36c10.8,0,21.49,3.25,28.81,10.69V71.4Zm-27.88,58.09c0-10.22-7.09-12.78-19.52-12.78s-19.52,2.56-19.52,12.78,7.09,12.78,19.52,12.78S460.28,139.72,460.28,129.49Z"/><path class="cls-1" d="M573.43,139.83h19.75c-4.53,17.43-21.49,25.68-46.82,25.68-26,0-46.24-10.22-46.24-35.32s19.64-35.43,47.4-35.43c26,0,46.82,8.94,46.82,40.08H520.45c2.21,10.92,12.67,14.52,25.91,14.52C560.07,149.36,568.44,146.81,573.43,139.83Zm-52.28-17.65h51.93c-3.37-9.65-13.12-12.32-25.67-12.32C533.81,109.86,524.29,112.53,521.15,122.18Z"/><path class="cls-1" d="M693.56,95.92l-34.74,68.43H630.47L595.85,95.92h22.07l26.84,54.37,26.72-54.37Z"/><path class="cls-1" d="M695.76,130.19c0-25.21,19-35.43,47.4-35.43s47.4,10.22,47.4,35.43-19.17,35.32-47.4,35.32S695.76,155.29,695.76,130.19Zm74.82,0c0-14.29-9.06-18.82-27.42-18.82s-27.53,4.53-27.53,18.82,9.06,18.71,27.53,18.71S770.58,144.37,770.58,130.19Z"/></svg>