<?xml version="1.0" standalone="no"?>
<!DOCTYPE svg PUBLIC "-//W3C//DTD SVG 20010904//EN"
 "http://www.w3.org/TR/2001/REC-SVG-20010904/DTD/svg10.dtd">
<svg version="1.0" xmlns="http://www.w3.org/2000/svg"
 width="700.000000pt" height="467.000000pt" viewBox="0 0 700.000000 467.000000"
 preserveAspectRatio="xMidYMid meet">
<metadata>
Created by potrace 1.12, written by Peter Selinger 2001-2015
</metadata>
<g transform="translate(0.000000,467.000000) scale(0.100000,-0.100000)"
fill="#000000" stroke="none">
<path d="M3170 4579 c-41 -4 -110 -10 -152 -13 -43 -4 -99 -10 -125 -15 -26
-5 -55 -9 -63 -9 -8 0 -55 -7 -105 -16 -49 -8 -116 -20 -147 -25 -31 -5 -85
-17 -120 -26 -35 -8 -73 -17 -86 -20 -13 -2 -32 -7 -42 -10 -10 -3 -27 -7 -37
-9 -30 -6 -234 -67 -272 -81 -20 -7 -83 -30 -141 -51 -58 -20 -129 -48 -158
-60 -29 -13 -55 -24 -59 -24 -13 0 -295 -141 -388 -195 -324 -185 -626 -430
-815 -661 -127 -155 -253 -366 -305 -509 -10 -27 -23 -56 -28 -62 -5 -7 -7
-13 -3 -13 3 0 -1 -16 -9 -36 -35 -84 -55 -231 -55 -405 0 -157 5 -206 31
-319 52 -219 184 -472 367 -700 108 -134 170 -198 307 -314 170 -144 234 -191
460 -334 91 -58 280 -155 455 -235 90 -40 350 -136 425 -157 17 -4 75 -21 130
-38 93 -27 124 -35 238 -62 73 -17 261 -53 277 -53 8 1 45 -5 81 -13 36 -7 74
-12 85 -12 10 1 60 -5 109 -13 128 -20 799 -19 945 1 58 7 108 13 112 12 4 -1
31 3 62 9 30 5 68 11 83 13 94 12 386 74 478 101 449 132 783 275 1095 468
198 123 261 169 445 328 338 292 573 652 659 1011 47 197 49 376 5 603 -7 33
-16 67 -20 76 -4 9 -10 27 -13 40 -3 13 -12 42 -21 64 -9 22 -19 49 -22 60
-25 78 -138 272 -232 400 -240 325 -608 618 -1066 848 -119 60 -315 147 -330
147 -4 0 -21 6 -38 14 -37 17 -147 57 -162 60 -5 1 -23 7 -40 13 -48 19 -306
93 -345 99 -14 3 -31 7 -39 9 -37 14 -357 72 -437 80 -26 3 -72 9 -103 14 -31
5 -75 10 -99 10 -24 1 -82 5 -130 11 -101 11 -532 11 -642 -1z m775 -168 c39
-6 106 -16 150 -22 44 -5 100 -14 125 -19 120 -22 168 -32 205 -42 22 -5 51
-12 65 -15 14 -2 39 -8 55 -13 17 -5 50 -14 75 -21 69 -18 98 -27 180 -53 102
-33 304 -108 365 -136 477 -217 763 -403 1054 -686 404 -394 585 -829 515
-1236 -86 -501 -495 -987 -1159 -1378 -87 -52 -352 -183 -455 -226 -195 -80
-529 -189 -650 -210 -14 -3 -38 -9 -55 -13 -29 -9 -106 -25 -195 -41 -43 -8
-82 -14 -290 -42 -129 -18 -729 -18 -865 0 -211 27 -486 75 -506 88 -5 3 -21
7 -36 9 -16 2 -71 15 -123 30 -52 15 -108 30 -125 35 -16 4 -77 24 -135 45
-58 20 -125 44 -150 52 -25 9 -49 19 -55 23 -5 4 -23 12 -40 17 -83 28 -397
182 -515 253 -408 245 -745 559 -943 880 -75 122 -145 293 -174 429 -23 104
-23 339 0 441 25 115 52 192 106 303 158 327 451 637 852 903 70 46 130 84
133 84 3 0 35 18 70 39 76 47 384 198 416 205 3 1 11 5 17 9 7 4 36 16 65 27
29 10 98 35 153 55 298 108 652 188 995 225 58 6 114 13 125 15 51 7 688 -4
750 -14z"/>
<path d="M3330 3401 c-143 -7 -171 -19 -214 -94 -25 -43 -62 -143 -69 -187
-41 -233 -61 -981 -37 -1365 15 -248 35 -489 45 -555 l6 -36 187 3 c103 1 242
5 309 9 113 6 122 7 127 27 3 12 6 99 6 193 0 94 3 186 6 203 l7 31 123 0 124
0 0 -230 0 -230 103 0 c57 0 178 3 269 7 l165 6 8 66 c34 319 48 654 41 1006
-4 160 -11 346 -16 415 -35 444 -36 453 -70 544 -41 109 -133 169 -278 180
-121 9 -710 14 -842 7z m544 -307 c14 -16 26 -33 26 -39 1 -5 3 -17 4 -25 12
-58 26 -336 32 -610 l6 -325 -128 3 c-71 2 -131 6 -133 8 -8 8 -6 740 2 836 7
74 14 106 31 130 43 64 114 74 160 22z"/>
<path d="M2375 3350 c-104 -4 -191 -8 -191 -8 -1 -1 -21 -50 -44 -109 -24 -60
-49 -121 -56 -138 -17 -40 -66 -178 -104 -294 -17 -51 -53 -179 -80 -285 -26
-105 -50 -184 -52 -176 -13 38 -38 150 -36 157 1 4 -3 40 -10 78 -20 120 -31
242 -44 484 l-12 233 -105 -6 c-303 -18 -290 -16 -305 -50 -8 -17 -19 -47 -26
-66 -7 -19 -16 -44 -21 -55 -16 -37 -68 -210 -83 -275 -68 -304 -67 -624 6
-1065 11 -66 21 -129 22 -140 2 -11 6 -33 10 -50 3 -16 8 -39 10 -50 2 -11 14
-70 27 -132 l23 -112 80 -6 c45 -3 127 -7 183 -9 l103 -3 -5 36 c-2 20 -9 81
-15 136 -6 55 -15 134 -20 175 -6 41 -13 100 -16 130 -3 30 -9 82 -13 115 -10
71 -13 131 -7 124 2 -2 29 -65 59 -140 98 -242 261 -580 283 -586 6 -2 16 31
23 79 14 85 56 305 72 368 21 89 112 366 124 378 3 3 5 -28 5 -69 0 -102 18
-415 30 -524 6 -49 13 -108 15 -130 2 -22 10 -66 16 -97 l12 -58 91 -1 c50 0
160 -6 245 -12 l153 -13 -5 86 c-3 47 -11 164 -18 260 -23 306 -17 1085 11
1460 5 69 12 180 15 248 l7 122 -84 -2 c-45 -1 -168 -5 -273 -8z"/>
<path d="M4772 3253 c12 -83 27 -188 38 -263 6 -36 15 -103 20 -150 6 -47 12
-92 15 -100 2 -8 7 -46 10 -85 3 -38 11 -113 17 -165 14 -125 14 -739 -1 -855
-6 -49 -14 -112 -16 -140 -5 -47 -19 -149 -31 -224 l-6 -34 194 7 c192 6 306
21 403 52 166 54 273 135 347 264 23 39 83 195 93 240 2 8 8 35 14 60 25 110
31 161 42 381 19 383 -11 571 -116 730 -51 75 -143 154 -251 215 -67 37 -213
91 -273 100 -20 3 -54 10 -76 15 -22 4 -128 9 -236 9 l-196 0 9 -57z m643
-299 c97 -64 138 -306 116 -688 -13 -217 -28 -362 -48 -451 -4 -16 -7 -32 -7
-35 -1 -3 -10 -32 -21 -64 -24 -71 -77 -132 -122 -141 -32 -6 -33 -6 -33 27 0
18 5 51 10 73 25 110 41 458 30 649 -17 286 -24 368 -50 564 -6 40 -10 78 -10
84 0 16 103 3 135 -18z"/>
</g>
</svg>
