<svg width="270" height="79" viewBox="0 0 270 79" fill="none" xmlns="http://www.w3.org/2000/svg">
<path d="M181 23.0593L183.112 1.20532H190.516L192.601 23.0593H188.454L188.148 19.5223H185.503L185.25 23.0593H181ZM185.833 16.0377H187.818L186.852 4.91945H186.649L185.835 16.0377H185.833Z" fill="white"/>
<path d="M194.814 21.787C193.932 20.8026 193.491 19.2184 193.491 17.0301V14.8922H197.791V17.6139C197.791 18.699 198.139 19.2425 198.834 19.2425C199.224 19.2425 199.496 19.1278 199.647 18.8983C199.8 18.6688 199.877 18.2843 199.877 17.7408C199.877 17.0281 199.792 16.4383 199.623 15.9733C199.454 15.5062 199.236 15.1177 198.975 14.8037C198.711 14.4896 198.24 14.0025 197.564 13.3402L195.681 11.4579C194.222 10.0327 193.493 8.45644 193.493 6.72519C193.493 4.85907 193.922 3.43985 194.778 2.46351C195.633 1.48918 196.885 1 198.53 1C200.497 1 201.914 1.52139 202.779 2.56416C203.645 3.60694 204.076 5.23954 204.076 7.46198H199.623L199.597 5.96022C199.597 5.67235 199.516 5.44286 199.355 5.27376C199.194 5.10467 198.969 5.02012 198.681 5.02012C198.341 5.02012 198.087 5.11272 197.918 5.29993C197.749 5.48715 197.664 5.7408 197.664 6.06289C197.664 6.77552 198.071 7.51231 198.886 8.27728L201.431 10.7191C202.025 11.2949 202.516 11.8424 202.906 12.3598C203.297 12.8772 203.609 13.4871 203.848 14.1917C204.086 14.8963 204.205 15.7317 204.205 16.698C204.205 18.852 203.81 20.4846 203.021 21.5958C202.232 22.707 200.931 23.2626 199.116 23.2626C197.131 23.2626 195.697 22.7714 194.816 21.787H194.814Z" fill="white"/>
<path d="M212 22.856V1H216.223V22.856H212Z" fill="white"/>
<path d="M217.977 22.856V1H222.48L224.489 11.4559V1H228.713V22.854H224.439L222.251 11.9149V22.854H217.977V22.856Z" fill="white"/>
<path d="M165.696 22.8801L163 1H167.173L168.776 15.8827L170.201 1H174.374L171.676 22.8801H165.698H165.696Z" fill="white"/>
<path d="M163 48.0942V26.2402H169.665L171.497 39.5708L173.329 26.2402H180.047V48.0942H176.053V32.3459L173.534 48.0942H169.617L166.946 32.3459V48.0942H163.002H163Z" fill="white"/>
<path d="M181.979 48.0942V26.2402H190.73V30.4637H186.43V34.7133H190.551V38.8341H186.43V43.8466H191.01V48.0962H181.977L181.979 48.0942Z" fill="white"/>
<path d="M194.342 48.0942V30.4375H191.747V26.2402H201.313V30.4375H198.718V48.0942H194.342Z" fill="white"/>
<path d="M201.949 48.0942L204.061 26.2402H211.465L213.55 48.0942H209.403L209.097 44.5572H206.452L206.199 48.0942H201.949ZM206.782 41.0726H208.767L207.801 29.9544H207.598L206.784 41.0726H206.782Z" fill="white"/>
<path d="M216.349 48.0942L213.651 26.2141H217.824L219.427 41.0967L220.852 26.2141H225.025L222.327 48.0942H216.349Z" fill="white"/>
<path d="M226.271 48.0942V26.2402H235.022V30.4637H230.722V34.7133H234.843V38.8341H230.722V43.8466H235.302V48.0962H226.269L226.271 48.0942Z" fill="white"/>
<path d="M236.753 26.2402H243.469C244.538 26.2402 245.365 26.4818 245.949 26.9649C246.535 27.4481 246.927 28.1265 247.133 29.0002C247.336 29.8738 247.439 30.9891 247.439 32.3459C247.439 33.5839 247.278 34.5502 246.955 35.2467C246.633 35.9433 246.074 36.4264 245.277 36.6962C245.939 36.8331 246.418 37.1632 246.714 37.6886C247.01 38.214 247.159 38.9267 247.159 39.8265L247.108 48.0942H242.835V39.5467C242.835 38.9367 242.716 38.5462 242.478 38.3771C242.241 38.208 241.808 38.1234 241.18 38.1234V48.0962H236.753V26.2402ZM242.249 34.3308C242.859 34.3308 243.165 33.6685 243.165 32.3459C243.165 31.7702 243.139 31.3373 243.088 31.0475C243.038 30.7596 242.943 30.5603 242.808 30.4496C242.672 30.3389 242.478 30.2845 242.223 30.2845H241.204V34.3288H242.247L242.249 34.3308Z" fill="white"/>
<path d="M249.778 46.822C248.896 45.8376 248.455 44.2533 248.455 42.065V39.9272H252.755V42.6488C252.755 43.7339 253.103 44.2774 253.798 44.2774C254.188 44.2774 254.46 44.1627 254.611 43.9332C254.764 43.7037 254.841 43.3192 254.841 42.7757C254.841 42.063 254.756 41.4732 254.587 41.0082C254.418 40.5411 254.2 40.1526 253.939 39.8386C253.675 39.5245 253.204 39.0374 252.528 38.3751L250.645 36.4929C249.186 35.0676 248.457 33.4914 248.457 31.7601C248.457 29.894 248.886 28.4748 249.742 27.4984C250.597 26.5241 251.849 26.0349 253.494 26.0349C255.461 26.0349 256.878 26.5563 257.744 27.5991C258.609 28.6418 259.04 30.2745 259.04 32.4969H254.587L254.561 30.9951C254.561 30.7073 254.48 30.4778 254.319 30.3087C254.158 30.1396 253.933 30.055 253.645 30.055C253.305 30.055 253.051 30.1476 252.882 30.3348C252.713 30.5221 252.628 30.7757 252.628 31.0978C252.628 31.8104 253.035 32.5472 253.85 33.3122L256.395 35.754C256.989 36.3298 257.48 36.8773 257.87 37.3947C258.261 37.9121 258.573 38.522 258.812 39.2266C259.05 39.9312 259.169 40.7666 259.169 41.7329C259.169 43.8869 258.774 45.5195 257.985 46.6307C257.196 47.7419 255.895 48.2975 254.08 48.2975C252.095 48.2975 250.661 47.8063 249.78 46.822H249.778Z" fill="white"/>
<path d="M260.616 48.0942V26.2402H269.367V30.4637H265.067V34.7133H269.188V38.8341H265.067V43.8466H269.647V48.0962H260.614L260.616 48.0942Z" fill="white"/>
<path d="M36 5H8L51.5 73.5L153.5 57L155.5 5H51.5L40.5 12.5L36 5Z" fill="white"/>
<path d="M40.9299 28.6961L38.0411 32.9075L25.8379 14.1738H31.2369L40.9299 28.6961Z" fill="#9381FF"/>
<path d="M61.6244 14.1738L45.0306 39.6352L44.8695 39.8425L43.714 41.612L41.2379 37.8133L56.64 14.1738H61.6244Z" fill="#9381FF"/>
<path d="M82.8059 13.9624L70.7033 36.1083H75.736L83.2549 13.9624H82.8059ZM82.8059 13.9624L70.7033 36.1083H75.736L83.2549 13.9624H82.8059ZM48.2978 0.754619L43.2631 8.21106L38.2626 0.718384H0L48.175 78.5238L157.082 61.0101V0.819038L48.2978 0.754619ZM43.2751 54.228L13.0005 7.76416H34.4941L43.2308 20.8552L52.0582 7.77624L73.5518 7.76416L43.2751 54.228ZM69.7391 54.1837L73.0023 44.5672H65.8095L60.5514 54.1837H48.5776L78.1316 7.6635H93.8899L81.425 54.1837H69.7391ZM84.7224 54.1837L100.811 7.6635H109.834L96.7244 54.1837H84.7224ZM149.535 54.1837H138.333L140.487 18.1617L131.269 54.1837H120.316L119.802 18.1617L112.728 54.1837H101.526L113.443 7.6635H127.649L128.295 32.8028L135.373 7.6635H149.535V54.1837ZM82.8059 13.9624L70.7033 36.1083H75.736L83.2549 13.9624H82.8059ZM82.8059 13.9624L70.7033 36.1083H75.736L83.2549 13.9624H82.8059ZM82.8059 13.9624L70.7033 36.1083H75.736L83.2549 13.9624H82.8059Z" fill="#9381FF"/>
<path d="M163 60.9088V53.073H164.535V60.9088H163Z" fill="white"/>
<path d="M165.169 60.9088V53.073H166.806L167.537 56.8221V53.073H169.072V60.9088H167.518L166.723 56.9863V60.9088H165.169Z" fill="white"/>
<path d="M172.563 60.9088L171.712 53.073H173.265L173.709 58.0171L174.153 53.073H175.633L176.058 58.0171L176.484 53.073H178.056L177.187 60.9088H175.282L174.884 57.1323L174.505 60.9088H172.563Z" fill="white"/>
<path d="M178.527 60.9088V53.073H181.708V54.5872H180.145V56.1106H181.644V57.5884H180.145V59.3854H181.81V60.9088H178.527Z" fill="white"/>
<path d="M182.338 53.073H184.493C185.073 53.073 185.492 53.2128 185.751 53.4926C186.016 53.7723 186.149 54.2284 186.149 54.8609V55.2075C186.149 55.9555 185.877 56.4025 185.335 56.5485C185.668 56.6336 185.902 56.8312 186.038 57.1414C186.173 57.4515 186.241 57.862 186.241 58.3729C186.241 59.206 186.115 59.8385 185.862 60.2702C185.609 60.6959 185.153 60.9088 184.493 60.9088H182.338V53.073ZM184.216 56.0194C184.351 56.0194 184.444 55.9707 184.493 55.8734C184.542 55.77 184.567 55.6271 184.567 55.4447V54.6602C184.567 54.4048 184.453 54.2771 184.225 54.2771H183.892V56.0194H184.216ZM184.049 59.5314C184.462 59.5314 184.669 59.3368 184.669 58.9475V57.9715C184.669 57.7343 184.632 57.5549 184.558 57.4333C184.49 57.3117 184.367 57.2509 184.188 57.2509H183.892V59.5222L184.049 59.5314Z" fill="white"/>
<path d="M188.595 61C187.898 61 187.39 60.8206 187.069 60.4618C186.748 60.0969 186.588 59.5435 186.588 58.8016V57.9806H188.216V58.8016C188.216 59.0388 188.247 59.2242 188.308 59.358C188.37 59.4857 188.493 59.5496 188.678 59.5496C188.808 59.5496 188.9 59.504 188.956 59.4128C189.017 59.3216 189.054 59.2151 189.067 59.0935C189.079 58.9658 189.085 58.7834 189.085 58.5462V58.3546C189.085 57.6796 188.86 57.3421 188.41 57.3421C188.33 57.3421 188.277 57.3451 188.253 57.3512V55.9464C188.536 55.9464 188.749 55.8856 188.891 55.764C189.033 55.6363 189.104 55.4356 189.104 55.1619C189.104 54.718 188.974 54.496 188.715 54.496C188.555 54.496 188.45 54.5355 188.401 54.6146C188.358 54.6937 188.327 54.794 188.308 54.9156C188.296 55.0372 188.287 55.1254 188.28 55.1802V55.4173H186.634L186.625 55.1437C186.631 54.4261 186.804 53.9 187.143 53.5656C187.482 53.225 188.003 53.0547 188.706 53.0547C190.056 53.0547 190.731 53.751 190.731 55.1437C190.731 55.5511 190.676 55.8765 190.565 56.1197C190.454 56.3569 190.263 56.5241 189.991 56.6214C190.213 56.7309 190.377 56.8677 190.482 57.0319C190.593 57.19 190.663 57.3846 190.694 57.6157C190.731 57.8468 190.75 58.157 190.75 58.5462C190.75 59.355 190.577 59.9662 190.232 60.3797C189.893 60.7932 189.347 61 188.595 61Z" fill="white"/>
<path d="M194.121 60.9088L193.27 53.073H194.824L195.268 58.0171L195.712 53.073H197.191L197.617 58.0171L198.042 53.073H199.614L198.745 60.9088H196.84L196.442 57.1323L196.063 60.9088H194.121Z" fill="white"/>
<path d="M200.085 60.9088V53.073H203.267V54.5872H201.704V56.1106H203.202V57.5884H201.704V59.3854H203.368V60.9088H200.085Z" fill="white"/>
<path d="M206.749 60.9088V54.5781H205.805V53.073H209.283V54.5781H208.339V60.9088H206.749Z" fill="white"/>
<path d="M209.731 53.073H212.173C212.561 53.073 212.86 53.1612 213.07 53.3375C213.285 53.5078 213.43 53.751 213.504 54.0673C213.578 54.3774 213.615 54.7758 213.615 55.2623C213.615 55.7062 213.557 56.0528 213.44 56.3022C213.322 56.5515 213.119 56.7248 212.829 56.8221C213.07 56.8708 213.242 56.9894 213.347 57.1779C213.458 57.3664 213.514 57.6218 213.514 57.9441L213.495 60.9088H211.941V57.8438C211.941 57.6249 211.898 57.485 211.812 57.4242C211.726 57.3634 211.568 57.333 211.34 57.333V60.9088H209.731V53.073ZM211.729 55.9738C211.951 55.9738 212.062 55.7366 212.062 55.2623C212.062 55.0555 212.052 54.9004 212.034 54.797C212.015 54.6937 211.981 54.6237 211.932 54.5872C211.883 54.5447 211.812 54.5234 211.719 54.5234H211.349V55.9738H211.729Z" fill="white"/>
<path d="M215.979 60.9818C215.325 60.9818 214.838 60.7993 214.518 60.4344C214.203 60.0696 214.046 59.5283 214.046 58.8107V53.073H215.59V58.7469C215.59 58.9962 215.615 59.1908 215.664 59.3307C215.714 59.4705 215.818 59.5405 215.979 59.5405C216.139 59.5405 216.244 59.4736 216.293 59.3398C216.343 59.1999 216.367 59.0023 216.367 58.7469V53.073H217.912V58.8107C217.912 59.5283 217.751 60.0696 217.431 60.4344C217.116 60.7993 216.632 60.9818 215.979 60.9818Z" fill="white"/>
<path d="M220.405 60.9818C219.684 60.9818 219.163 60.8054 218.842 60.4527C218.522 60.1 218.361 59.5314 218.361 58.7469V57.9806H219.924V58.9567C219.924 59.3459 220.051 59.5405 220.304 59.5405C220.445 59.5405 220.544 59.501 220.6 59.4219C220.655 59.3368 220.683 59.1969 220.683 59.0023C220.683 58.7469 220.652 58.5371 220.59 58.3729C220.529 58.2026 220.449 58.0627 220.35 57.9533C220.257 57.8377 220.088 57.6613 219.841 57.4242L219.157 56.7491C218.627 56.2383 218.361 55.6727 218.361 55.0525C218.361 54.3835 218.516 53.8757 218.824 53.5291C219.138 53.1764 219.595 53 220.193 53C220.908 53 221.423 53.1885 221.737 53.5656C222.052 53.9365 222.209 54.5203 222.209 55.317H220.59L220.581 54.7788C220.581 54.6754 220.55 54.5933 220.489 54.5325C220.433 54.4717 220.353 54.4413 220.248 54.4413C220.125 54.4413 220.032 54.4747 219.971 54.5416C219.909 54.6085 219.878 54.6997 219.878 54.8153C219.878 55.0707 220.026 55.3352 220.322 55.6089L221.247 56.4846C221.463 56.6914 221.642 56.889 221.783 57.0775C221.925 57.26 222.039 57.4789 222.126 57.7343C222.212 57.9837 222.255 58.2816 222.255 58.6283C222.255 59.4006 222.11 59.9875 221.82 60.3888C221.537 60.7841 221.065 60.9818 220.405 60.9818Z" fill="white"/>
<path d="M223.466 60.9088V54.5781H222.523V53.073H226V54.5781H225.057V60.9088H223.466Z" fill="white"/>
</svg>
