<svg width="416" height="206" viewBox="0 0 416 206" fill="none" xmlns="http://www.w3.org/2000/svg">
<g clip-path="url(#clip0_18_389)">
<path d="M108.149 73.9256L100.516 85.0533L68.2714 35.5532H82.5373L108.149 73.9256Z" fill="#6655CC"/>
<path d="M162.83 35.5532L118.984 102.83L118.559 103.378L115.505 108.053L108.963 98.0161L149.66 35.5532H162.83Z" fill="#6655CC"/>
<path d="M218.798 34.9947L186.819 93.5108H200.117L219.984 34.9947H218.798ZM218.798 34.9947L186.819 93.5108H200.117L219.984 34.9947H218.798ZM127.617 0.0957448L114.314 19.7979L101.101 0H0L127.293 205.585L415.059 159.309V0.265958L127.617 0.0957448ZM114.346 141.388L34.3511 18.617H91.1437L114.229 53.2075L137.553 18.649L194.346 18.617L114.346 141.388ZM184.272 141.271L192.894 115.862H173.889L159.995 141.271H128.357L206.447 18.3511H248.085L215.149 141.271H184.272V141.271ZM223.862 141.271L266.373 18.3511H290.213L255.575 141.271H223.862V141.271ZM395.118 141.271H365.516L371.208 46.0905L346.852 141.271H317.91L316.554 46.0905L297.862 141.271H268.261L299.75 18.3511H337.288L338.995 84.7767L357.697 18.3511H395.118V141.271V141.271ZM218.798 34.9947L186.819 93.5108H200.117L219.984 34.9947H218.798ZM218.798 34.9947L186.819 93.5108H200.117L219.984 34.9947H218.798ZM218.798 34.9947L186.819 93.5108H200.117L219.984 34.9947H218.798Z" fill="#6655CC"/>
</g>
<defs>
<clipPath id="clip0_18_389">
<rect width="415.059" height="205.585" fill="white"/>
</clipPath>
</defs>
</svg>
