<?xml version="1.0" encoding="utf-8"?>
<!-- Generator: Adobe Illustrator 24.3.0, SVG Export Plug-In . SVG Version: 6.00 Build 0)  -->
<svg version="1.1" id="Layer_1" xmlns="http://www.w3.org/2000/svg" xmlns:xlink="http://www.w3.org/1999/xlink" x="0px" y="0px"
	 viewBox="0 0 379 525.9" style="enable-background:new 0 0 379 525.9;" xml:space="preserve">
<style type="text/css">
	.st0{fill:#00CAFF;}
	.st1{fill-rule:evenodd;clip-rule:evenodd;fill:#FFFFFF;}
	.st2{fill:#FFFFFF;}
</style>
<polygon class="st0" points="228.5,153 204.9,171.4 230.2,131.9 218.9,122.1 187.5,148.8 205.3,121.2 194.3,111.1 170.9,129.5 
	158.1,122.1 139,154.8 150.3,164.6 169.2,149.8 148.1,182.7 159.3,192.5 190.9,165.6 169.2,199.6 180.2,209.6 200.3,193.9 
	213,202.5 239.4,163.1 "/>
<g>
	<g>
		<g>
			<g>
				<g>
					<path class="st1" d="M189.2,253.3c-65.5,0-102.3-50.8-102.2-106.1c0.1-65.4,47.7-137,102.2-137c54.5,0,102.1,71.6,102.2,137
						C291.6,202.5,254.8,253.3,189.2,253.3L189.2,253.3z M189,235.6l0.5-0.1c26.9,0,47.9-10.4,62.1-26.3
						c14.5-16.3,22.2-38.7,22.2-62.2v-0.2c0-29.7-11.2-60.9-28.6-84.3c-15.4-20.6-35.3-34.6-55.9-34.6c-20.6,0-40.5,14-55.9,34.6
						c-17.4,23.3-28.6,54.6-28.6,84.3l0.1,0.2c0,23.5,7.7,45.9,22.2,62.2C141.1,225.2,162.1,235.6,189,235.6z"/>
				</g>
			</g>
		</g>
	</g>
</g>
<g>
	<g>
		<path class="st2" d="M182.9,395.4c-32,0-51.1,16-51.1,42.8c0,19.7,12.8,42.8,48.8,42.8c15.2,0,26.8-4.2,34.2-12.6l1.2-1.4v8.8
			c0,22.5-13.6,25.5-27,25.5c-15.3,0-22.2-3.1-24.4-10.9h-29.2c3.2,24.2,29.8,27.3,52.6,27.3c38.1,0,55.1-12.6,55.1-40.9v-79.3H217
			v10.5h-1.3l-0.2-0.3C206.6,397,191.2,395.4,182.9,395.4z M216,438.7c0,16.3-9.5,24.5-28.1,24.5c-18.3,0-28-8.5-28-24.5
			s9.7-24.5,28-24.5C206.6,414.1,216,422.4,216,438.7z"/>
	</g>
	<g>
		<path class="st2" d="M62.3,394.4c-46.9,0-56.8,25-56.8,46s9.8,46,56.8,46c27.4,0,45.3-9.4,53.2-27.8H86.4
			c-4.2,7.4-12.6,11.4-24.1,11.4c-19.7,0-28.6-12.6-28.6-21.6v-1h83.7v-1.9C117.5,412.1,98.4,394.4,62.3,394.4z M89.3,431.9H33.7v-1
			c0-2.6,5.2-20,28-20c21.1,0,27.6,14.7,27.6,20V431.9z"/>
		<path class="st2" d="M345.1,408c-8.8-10.9-24.2-12.6-32.6-12.6c-32,0-51.1,16-51.1,42.8c0,19.7,12.8,42.8,48.8,42.8
			c15.2,0,26.8-4.2,34.2-12.6l1.2-1.4v8.8c0,22.5-13.6,25.5-27,25.5c-15.3,0-22.2-3.1-24.4-10.9h-29.2c3.2,24.2,29.8,27.3,52.6,27.3
			c38.1,0,55.1-12.6,55.1-40.9v-79.3h-26.2v10.5h-1.3L345.1,408z M317.6,463.2c-18.3,0-28-8.5-28-24.5s9.7-24.5,28-24.5
			c18.7,0,28.1,8.3,28.1,24.5S336.3,463.2,317.6,463.2z"/>
	</g>
</g>
<path class="st2" d="M18.8,315.5c-3.6,0-6.9,1.4-9.3,3.9c-2.5,2.6-3.9,6.1-3.9,9.9c0,8.3,5.4,13.8,13.4,13.8c4.5,0,8.1-1.4,10.9-4
	l0,0l-2.5-3.4l0,0l0,0c-2.3,2-4.9,2.9-7.9,2.9c-3.8,0-8-2.4-8.5-7.8h20.4v-1.7c0-3.8-1.2-7.3-3.4-9.7
	C25.6,316.9,22.5,315.5,18.8,315.5z M11.1,326.8c0.6-4.2,3.8-7.1,7.9-7.1c3.9,0,6.8,2.9,7.3,7.1H11.1z"/>
<path class="st2" d="M51.9,315.5c-2.8,0-6.6,1.2-8.9,4.5h-0.2v-3.9h-5v26.4h5.3V330c0-6.3,2.8-10.1,7.5-10.1c3.5,0,5.6,2.7,5.6,7.2
	v15.5h5.3v-16.2C61.6,319.4,58.1,315.5,51.9,315.5z"/>
<path class="st2" d="M84.6,337L84.6,337c-1.6,0.8-3.1,1.2-4.8,1.2c-2.5,0-3.4-1.3-3.4-5.3v-12.7h7.7v-4.1h-7.7v-9.9h-3.3l0,0
	c-0.4,5-1.5,9.7-6.2,10.7l0,0v3.3h4.4v14.1c0,5.9,2.5,8.7,8,8.7c1.5,0,4.6-0.6,6.8-2l0,0L84.6,337L84.6,337z"/>
<path class="st2" d="M102.8,315.5c-3.6,0-6.9,1.4-9.3,3.9c-2.5,2.6-3.9,6.1-3.9,9.9c0,8.3,5.4,13.8,13.4,13.8c4.5,0,8.1-1.4,10.9-4
	l0,0l-2.5-3.4l0,0l0,0c-2.3,2-4.9,2.9-7.9,2.9c-3.8,0-8-2.4-8.5-7.8h20.4v-1.7c0-3.8-1.2-7.3-3.4-9.7
	C109.7,316.9,106.5,315.5,102.8,315.5z M95.1,326.8c0.6-4.2,3.8-7.1,7.9-7.1c3.9,0,6.8,2.9,7.3,7.1H95.1z"/>
<path class="st2" d="M133.9,315.5c-3.6,0-6.4,1.7-8.1,4.9l-0.1-0.1v-4.2h-5.1v26.4h5.2v-12.5c0-5.9,3-9.8,7.3-9.8
	c1,0,2.1,0.2,3.1,0.5l0.1,0v-4.9l0,0C135.6,315.6,134.4,315.5,133.9,315.5z"/>
<path class="st2" d="M185.7,319.8h-0.2c-1.9-2.7-5.3-4.2-9.1-4.2c-7.9,0-13.7,5.9-13.7,13.9c0,8.1,5.3,13.5,13.2,13.5
	c3.8,0,7.3-1.7,9.5-4.4h0.2v2.8c0,6.3-4,10.1-10.7,10.1c-1.9,0-5.8-0.5-9.8-3.5l0,0l-2.5,3.9l0,0l0,0c3.6,3.1,8.7,4.2,12.3,4.2
	c5.3,0,9.3-1.5,12-4.4c2.5-2.7,3.7-6.6,3.7-11.6v-23.9h-4.9V319.8z M184.7,333.3c-0.1,0.1-0.1,0.3-0.2,0.4c-0.2,0.4-0.4,0.9-0.6,1.2
	c-0.1,0.1-0.1,0.2-0.2,0.3c-1.7,2.4-4.3,3.6-6.9,3.6c-5.2,0-8.8-3.9-8.8-9.5c0-5.4,3.7-9.3,8.8-9.3c5.1,0,8.6,3.7,8.6,9.2
	C185.4,330.8,185.2,332.1,184.7,333.3z"/>
<path class="st2" d="M211.8,315.5c-3.6,0-6.4,1.7-8.1,4.9l-0.1-0.1v-4.2h-5.1v26.4h5.2v-12.5c0-5.9,3-9.8,7.3-9.8
	c1,0,2.1,0.2,3.1,0.5l0.1,0v-4.9l0,0C213.4,315.6,212.2,315.5,211.8,315.5z"/>
<path class="st2" d="M229,315.4c-3.9,0-7.5,1.4-10.1,4c-2.6,2.6-4.1,6.1-4.1,9.9c0,3.9,1.3,7.4,3.8,9.8c2.6,2.6,6.2,4,10.4,4
	c3.9,0,7.5-1.4,10.1-4c2.6-2.5,4-6,4-9.9C243,321.3,237.1,315.4,229,315.4z M229,338.8c-5.3,0-8.8-3.8-8.8-9.5
	c0-5.5,3.7-9.4,8.8-9.4c5.1,0,8.9,4,8.9,9.4C237.8,334.9,234.2,338.8,229,338.8z"/>
<path class="st2" d="M275.2,335.5h-0.1l-6.9-19.4l0,0h-4.3l0,0c-1.7,4.8-3.4,9.6-5,14.3c-0.6,1.7-1.2,3.3-1.7,5h-0.1
	c-1.2-3.6-2.5-7.4-3.7-11c-0.9-2.8-1.8-5.5-2.8-8.3l0,0H245l0,0.1c2.6,7.3,5.2,14.7,7.7,21.8l1.6,4.5l0,0h4.7l6.9-19.4l6.9,19.4l0,0
	h4.7l0,0c1.6-4.5,3.2-9.1,4.8-13.5c1.5-4.2,3.1-8.6,4.6-12.8l0-0.1h-5.2L275.2,335.5z"/>
<path class="st2" d="M333,319.8h-0.2c-1.9-2.7-5.3-4.2-9.1-4.2c-7.9,0-13.7,5.9-13.7,13.9c0,8.1,5.3,13.5,13.2,13.5
	c3.8,0,7.3-1.7,9.5-4.4h0.2v2.8c0,6.3-4,10.1-10.7,10.1c-1.9,0-5.8-0.5-9.8-3.5l0,0l-2.5,3.9l0,0l0,0c3.6,3.1,8.7,4.2,12.3,4.2
	c5.3,0,9.3-1.5,12-4.4c2.5-2.7,3.7-6.6,3.7-11.6v-23.9H333V319.8z M332,333.3c-0.1,0.1-0.1,0.3-0.2,0.4c-0.2,0.4-0.4,0.9-0.6,1.2
	c-0.1,0.1-0.1,0.2-0.2,0.3c-1.7,2.4-4.3,3.6-6.9,3.6c-5.2,0-8.8-3.9-8.8-9.5c0-5.4,3.7-9.3,8.8-9.3c5.1,0,8.6,3.7,8.6,9.2
	C332.7,330.8,332.5,332.1,332,333.3z"/>
<path class="st2" d="M358.8,315.4c-3.9,0-7.5,1.4-10.1,4c-2.6,2.6-4.1,6.1-4.1,9.9c0,3.9,1.3,7.4,3.8,9.8c2.6,2.6,6.2,4,10.4,4
	c3.9,0,7.5-1.4,10.1-4c2.6-2.5,4-6,4-9.9C372.9,321.3,367,315.4,358.8,315.4z M358.8,338.8c-5.3,0-8.8-3.8-8.8-9.5
	c0-5.5,3.7-9.4,8.8-9.4c5.1,0,8.9,4,8.9,9.4C367.7,334.9,364.1,338.8,358.8,338.8z"/>
</svg>
