<?xml version="1.0" encoding="UTF-8"?> <svg xmlns="http://www.w3.org/2000/svg" width="143" height="33" viewBox="0 0 143 33" fill="none"><path d="M52.7454 8.00146C48.1386 8.00146 44.9121 11.397 44.9121 16.0015C44.9121 20.6059 48.1558 24.0015 52.7454 24.0015C57.3349 24.0015 60.5786 20.6059 60.5786 16.0015C60.5786 11.397 57.3521 8.00146 52.7454 8.00146ZM52.7454 21.6192C49.6914 21.6192 47.4484 19.3259 47.4484 16.0015C47.4484 12.677 49.6914 10.4015 52.7454 10.4015C55.7993 10.4015 58.0423 12.677 58.0423 16.0015C58.0595 19.3259 55.8165 21.6192 52.7454 21.6192Z" fill="white"></path><path d="M77.4873 12.7479C77.4873 9.86787 75.6239 8.28564 72.1904 8.28564H66.0308V23.7167H68.4463V17.2279H69.6713H70.8791L75.6412 23.7167H78.6433L73.6225 17.1034C76.0207 16.659 77.4873 15.0412 77.4873 12.7479ZM68.4463 14.9701V10.6323H72.1214C74.0193 10.6323 74.9683 11.2901 74.9683 12.7656C74.9683 14.259 74.0538 14.9879 72.1214 14.9879H68.4463V14.9701Z" fill="white"></path><path d="M83.5435 23.7167H85.959V17.1212H93.6197V14.7745H85.959V10.6501H94.2236V8.28564H83.5435V23.7167Z" fill="white"></path><path d="M102.074 8.28564H99.6587V23.7167H102.074V8.28564Z" fill="white"></path><path d="M118.414 17.4412C118.414 20.3745 116.792 21.6012 114.48 21.6012C112.168 21.6012 110.546 20.3923 110.546 17.4412V8.28564H108.13V17.6368C108.13 21.9212 110.943 24.0012 114.48 24.0012C118.017 24.0012 120.829 21.9212 120.829 17.6368V8.28564H118.414V17.4412Z" fill="white"></path><path d="M139.291 8.28564L134.926 19.3079L130.578 8.28564H126.868V23.7167H129.284V11.1479L133.649 22.2056H136.203L140.585 11.0234V23.7167H143.001V8.28564H139.291Z" fill="white"></path><path d="M15.3561 0.00158152C6.90169 0.126026 0.034657 7.27269 0.00014927 15.9838C-0.0343584 24.2149 5.91822 31.006 13.648 32.0016V24.5882C13.648 22.1349 12.5437 19.8416 10.6803 18.2949C10.387 18.0638 10.1282 17.7971 9.86936 17.5127C7.10874 14.4371 7.12599 9.61936 9.92112 6.56158C13.0096 3.1838 18.203 3.1838 21.2914 6.56158C24.0693 9.61936 24.0865 14.4371 21.3432 17.5127C21.0844 17.7971 20.8083 18.0638 20.5322 18.2949C18.6861 19.8416 17.5646 22.1349 17.5646 24.5882V32.0016C25.2598 31.006 31.2124 24.2505 31.2124 16.0727C31.1779 7.11269 24.0693 -0.122863 15.3561 0.00158152Z" fill="#175BF5"></path></svg> 