<svg width="660" height="160" viewBox="0 0 660 160" fill="none"
  xmlns="http://www.w3.org/2000/svg">
  <path fill-rule="evenodd" clip-rule="evenodd" d="M657.192 84.1583C655.439 81.8318 653.179 79.9448 650.588 78.6436C647.375 77.1006 644.065 75.7712 640.681 74.664C637.592 73.7385 634.605 72.4973 631.765 70.9598C630.221 70.0646 629.181 68.4909 628.954 66.7071C628.728 64.9233 629.34 63.135 630.609 61.8743C631.86 60.8343 633.449 60.302 635.067 60.3809C636.982 60.2979 638.86 60.9238 640.351 62.1413C641.741 63.361 642.554 65.1197 642.588 66.9802H659.14C658.843 61.0122 656.576 56.3541 652.338 53.0058C648.1 49.6575 642.522 47.9889 635.604 48.0001C628.812 48.0001 623.309 49.6686 619.093 53.0058C614.877 56.343 612.758 60.9705 612.736 66.8884C612.736 70.8652 613.661 74.0911 615.51 76.5662C617.24 78.9383 619.504 80.8601 622.114 82.1726C625.32 83.6823 628.631 84.9511 632.021 85.9687C634.224 86.5984 636.391 87.3532 638.51 88.2296C639.931 88.8227 641.234 89.6707 642.357 90.7325C643.393 91.7505 643.959 93.1607 643.917 94.6203C643.997 96.317 643.267 97.9496 641.952 99.0086C640.394 100.139 638.501 100.698 636.586 100.594C634.63 100.683 632.713 100.022 631.22 98.7417C629.763 97.3262 628.898 95.4007 628.801 93.3605H612.546C612.565 97.1943 613.772 100.926 615.997 104.031C618.235 107.029 621.253 109.34 624.715 110.705C628.656 112.273 632.863 113.041 637.098 112.966C641.331 113.075 645.53 112.177 649.358 110.347C652.599 108.794 655.343 106.351 657.275 103.297C659.092 100.339 660.038 96.9177 659.999 93.4356C659.977 89.6646 659.041 86.5721 657.192 84.1583ZM228.168 74.664C231.551 75.7743 234.86 77.1036 238.075 78.6436C240.665 79.9425 242.925 81.8266 244.679 84.1499C246.528 86.5638 247.453 89.6674 247.453 93.4606C247.491 96.9427 246.546 100.364 244.729 103.322C242.793 106.376 240.047 108.819 236.803 110.372C232.978 112.202 228.782 113.099 224.552 112.991C220.317 113.067 216.11 112.298 212.169 110.73C208.705 109.365 205.684 107.055 203.443 104.056C201.214 100.953 200.01 97.2196 200 93.3855H216.247C216.347 95.4247 217.212 97.3487 218.666 98.7667C220.16 100.045 222.076 100.707 224.032 100.619C225.95 100.725 227.846 100.165 229.406 99.0337C230.72 97.9746 231.451 96.3421 231.371 94.6453C231.424 93.1797 230.863 91.7593 229.827 90.7325C228.703 89.6688 227.397 88.8207 225.972 88.2296C223.856 87.353 221.692 86.5982 219.491 85.9687C216.1 84.9539 212.789 83.6851 209.585 82.1726C206.973 80.8622 204.708 78.9401 202.98 76.5662C201.131 74.0911 200.206 70.8652 200.206 66.8884C200.234 60.9705 202.35 56.343 206.555 53.0058C210.76 49.6686 216.263 48.0001 223.066 48.0001C229.995 47.9889 235.573 49.6575 239.8 53.0058C244.027 56.3541 246.294 61.0122 246.603 66.9802H230.05C230.017 65.1197 229.203 63.361 227.813 62.1413C226.321 60.9266 224.443 60.301 222.529 60.381C220.906 60.3002 219.311 60.8325 218.055 61.8743C216.783 63.1346 216.17 64.9248 216.399 66.7099C216.627 68.4951 217.671 70.0685 219.219 70.9598C222.068 72.5025 225.067 73.7438 228.168 74.664ZM291.422 48.8927H309.402L285.065 80.0035L310.294 112.374H291.595L270.478 84.3418V112.374H255.18V48.8927H270.478V76.7414L291.422 48.8927ZM342.152 75.4816L329.984 48.8927H312.622L334.367 91.3915V112.374H349.665V91.3915L371.41 48.8927H354.23L342.152 75.4816ZM406.455 48.8927L424.08 92.8432L441.524 48.8927H459.513V112.374H444.207V74.3052L430.165 112.374H417.814L403.681 74.2135V112.374H388.383V48.8927H406.455ZM553.007 96.8228L537.437 48.8927H521.149L543.431 112.374H562.583L584.857 48.8927H568.668L553.007 96.8228ZM604.877 48.8927H589.579V112.366H604.877V48.8927ZM466.398 112.374L489.126 48.8927H506.842L529.57 112.374H513.372L497.893 65.9874L482.414 112.374H466.398Z" fill="#1D273D"/>
  <path d="M48.4736 98.7912C48.1618 96.7395 38.6932 89.1782 39.0725 87.6889C39.3324 86.6656 49.1466 85.0669 51.228 83.9082C51.9165 83.5255 53.0469 76.9536 57.42 71.8971C68.1307 59.5242 96.2665 60.8651 106.011 70.939C116.105 81.367 114.268 103.033 128.7 122.665C147.64 104.069 165 84.5774 165 80C165 70.7124 93.4888 0 82.5026 0C71.5165 0 0 70.7124 0 80C0 85.1684 22.1516 109.357 43.6925 129.804C45.5504 112.672 48.6451 99.9082 48.4736 98.7912Z" fill="#4C98FF"/>
  <path d="M96.4016 32.453C91.4282 31.3126 85.7195 33.0779 83.9422 40.936C83.7888 41.6182 83.581 41.902 83.4225 42.0504C83.3081 42.152 82.6274 42.1702 82.5104 42.1702C82.3935 42.1702 81.7153 42.152 81.601 42.0504C81.4347 41.902 81.2294 41.6182 81.0813 40.936C79.3066 33.0779 73.5978 31.3022 68.6244 32.453C63.4744 33.6325 61.2137 38.2021 61.2397 41.9932C61.2761 47.573 64.5267 50.6845 70.0874 52.3899C72.6026 53.171 77.1031 52.7753 78.0697 53.71C78.7063 54.3245 78.6829 55.1629 78.6881 55.5482C78.6933 55.9336 78.6881 57.212 78.6881 58.152C81.2398 58.0003 83.7991 58.0352 86.3457 58.2561C86.3457 57.3084 86.3457 55.9128 86.3457 55.5456C86.3457 55.1785 86.3275 54.3219 86.9641 53.7074C87.9307 52.7727 92.4338 53.158 94.9491 52.3873C100.51 50.6818 103.76 47.5704 103.797 41.9906C103.81 38.2021 101.549 33.6325 96.4016 32.453ZM74.5592 45.2114C73.9584 45.8141 73.1926 46.2246 72.3588 46.3911C71.525 46.5577 70.6606 46.4726 69.8751 46.1468C69.0895 45.8209 68.418 45.269 67.9456 44.5606C67.4732 43.8523 67.221 43.0195 67.221 42.1676C67.221 41.3157 67.4732 40.4829 67.9456 39.7746C68.418 39.0663 69.0895 38.5143 69.8751 38.1884C70.6606 37.8626 71.525 37.7776 72.3588 37.9441C73.1926 38.1106 73.9584 38.5211 74.5592 39.1238C74.9589 39.524 75.2759 39.9992 75.4921 40.5222C75.7083 41.0453 75.8194 41.6059 75.8192 42.1721C75.819 42.7382 75.7073 43.2987 75.4907 43.8216C75.274 44.3444 74.9566 44.8194 74.5566 45.2192L74.5592 45.2114ZM96.5289 45.2114C95.928 45.8141 95.1622 46.2246 94.3284 46.3911C93.4946 46.5577 92.6303 46.4726 91.8447 46.1468C91.0592 45.8209 90.3877 45.269 89.9153 44.5606C89.4429 43.8523 89.1907 43.0195 89.1907 42.1676C89.1907 41.3157 89.4429 40.4829 89.9153 39.7746C90.3877 39.0663 91.0592 38.5143 91.8447 38.1884C92.6303 37.8626 93.4946 37.7776 94.3284 37.9441C95.1622 38.1106 95.928 38.5211 96.5289 39.1238C96.9286 39.524 97.2456 39.9992 97.4618 40.5222C97.678 41.0453 97.7891 41.6059 97.7889 42.1721C97.7886 42.7382 97.677 43.2987 97.4604 43.8216C97.2437 44.3444 96.9263 44.8194 96.5263 45.2192L96.5289 45.2114Z" fill="white"/>
  <path d="M82.5026 160C88.0762 160 109.222 141.808 128.708 122.665C114.276 103.033 116.113 81.367 106.016 70.939C96.2639 60.8651 68.1281 59.5242 57.4252 71.8972C53.0468 76.9536 51.9217 83.5255 51.2331 83.9082C49.1544 85.0669 39.335 86.6656 39.0777 87.6889C38.6983 89.1782 48.1722 96.7395 48.4788 98.7912C48.6503 99.9082 45.5556 112.672 43.6977 129.804C60.8551 146.093 77.6306 160 82.5026 160Z" fill="white"/>
</svg>
